<svg xmlns="http://www.w3.org/2000/svg" viewBox="0 0 200 200" width="200" height="200">
  <defs>
    <linearGradient id="shieldGrad" x1="0%" y1="0%" x2="100%" y2="100%">
      <stop offset="0%" style="stop-color:#667eea;stop-opacity:1" />
      <stop offset="50%" style="stop-color:#764ba2;stop-opacity:1" />
      <stop offset="100%" style="stop-color:#f093fb;stop-opacity:1" />
    </linearGradient>
    <linearGradient id="centerGlow" x1="0%" y1="0%" x2="100%" y2="100%">
      <stop offset="0%" style="stop-color:#00f5ff;stop-opacity:1" />
      <stop offset="100%" style="stop-color:#0066ff;stop-opacity:1" />
    </linearGradient>
    <filter id="glow">
      <feGaussianBlur stdDeviation="3" result="coloredBlur"/>
      <feMerge> 
        <feMergeNode in="coloredBlur"/>
        <feMergeNode in="SourceGraphic"/>
      </feMerge>
    </filter>
  </defs>
  
  <!-- Main Shield Shape -->
  <path d="M100 20 L160 50 L160 130 Q160 160 100 180 Q40 160 40 130 L40 50 Z" 
        fill="url(#shieldGrad)" 
        stroke="#fff" 
        stroke-width="2"
        filter="url(#glow)" />
  
  <!-- Central Tech Core -->
  <circle cx="100" cy="90" r="25" fill="url(#centerGlow)" opacity="0.8"/>
  
  <!-- Circuit Connection Lines -->
  <g stroke="#00f5ff" stroke-width="3" stroke-linecap="round" opacity="0.9">
    <line x1="100" y1="65" x2="100" y2="45" />
    <line x1="85" y1="90" x2="65" y2="90" />
    <line x1="115" y1="90" x2="135" y2="90" />
    <line x1="88" y1="102" x2="72" y2="118" />
    <line x1="112" y1="102" x2="128" y2="118" />
  </g>
  
  <!-- Network Nodes -->
  <g fill="#00f5ff">
    <circle cx="100" cy="45" r="4"/>
    <circle cx="65" cy="90" r="4"/>
    <circle cx="135" cy="90" r="4"/>
    <circle cx="72" cy="118" r="4"/>
    <circle cx="128" cy="118" r="4"/>
  </g>
  
  <!-- Central Security Lock -->
  <g>
    <rect x="92" y="82" width="16" height="16" rx="2" fill="#fff" opacity="0.9"/>
    <circle cx="100" cy="88" r="3" fill="none" stroke="#667eea" stroke-width="2"/>
    <rect x="98" y="90" width="4" height="6" fill="#667eea"/>
  </g>
  
  <!-- Pulse Animation -->
  <circle cx="100" cy="90" r="25" fill="none" stroke="#00f5ff" stroke-width="1" opacity="0.6">
    <animate attributeName="r" values="25;35;25" dur="2s" repeatCount="indefinite"/>
    <animate attributeName="opacity" values="0.6;0;0.6" dur="2s" repeatCount="indefinite"/>
  </circle>
</svg>